<svg width="22" height="23" viewBox="0 0 22 23" fill="none" xmlns="http://www.w3.org/2000/svg">
<g id="Group 2">
<path id="Vector" d="M11 21.6841C16.899 21.6841 21.6812 16.9017 21.6812 11.0029C21.6812 5.10374 16.899 0.321777 11 0.321777C5.10104 0.321777 0.31897 5.10374 0.31897 11.0029C0.31897 16.9017 5.10104 21.6841 11 21.6841Z" fill="#FFF129"/>
<path id="Vector_2" d="M11 22.0024C8.82446 22.0024 6.69775 21.3577 4.88883 20.1488C3.07992 18.9404 1.67 17.2225 0.837433 15.2124C0.00481787 13.2022 -0.21306 10.9905 0.2113 8.85684C0.63566 6.72314 1.68322 4.76315 3.22153 3.22454C4.75979 1.68643 6.71973 0.638572 8.85348 0.214161C10.9872 -0.210756 13.1989 0.00701305 15.209 0.839628C17.2189 1.67224 18.937 3.08171 20.1458 4.89078C21.3546 6.69933 21.9999 8.82595 22.0001 11.0017C21.9969 13.9184 20.8371 16.7145 18.7748 18.7768C16.7126 20.8391 13.9166 21.9994 11 22.0024ZM11 0.640594C8.95057 0.640594 6.94713 1.24834 5.24305 2.38686C3.53898 3.52537 2.21084 5.14401 1.42659 7.03715C0.642295 8.93079 0.437181 11.0144 0.837079 13.0245C1.23698 15.0346 2.22396 16.8811 3.67324 18.3301C5.12246 19.7791 6.9689 20.7662 8.97903 21.1658C10.9892 21.5654 13.0727 21.3602 14.9661 20.5757C16.8595 19.7912 18.4778 18.4628 19.6163 16.7586C20.7548 15.0549 21.3624 13.0513 21.3622 11.0017C21.3588 8.25467 20.266 5.62109 18.3234 3.67883C16.3808 1.73606 13.7471 0.643633 11 0.640594Z" fill="#FFF129"/>
<path id="Vector_3" d="M11 11.9314C10.8161 11.9314 10.6364 11.8767 10.4835 11.7749C10.3307 11.6726 10.2116 11.5272 10.1412 11.3576C10.0708 11.1879 10.0525 11.001 10.0883 10.8207C10.1242 10.6404 10.2127 10.4748 10.3427 10.3447C10.4727 10.2145 10.6383 10.1264 10.8186 10.0904C10.9989 10.0545 11.1858 10.0727 11.3557 10.1431C11.5255 10.2135 11.6707 10.3325 11.7728 10.4855C11.8749 10.6384 11.9295 10.8182 11.9295 11.002C11.929 11.2482 11.8309 11.4842 11.6567 11.6584C11.4825 11.8326 11.2463 11.9309 11 11.9314ZM11 10.7103C10.9423 10.7103 10.8859 10.7276 10.838 10.7595C10.79 10.7914 10.7526 10.8369 10.7305 10.8901C10.7085 10.9438 10.7027 11.002 10.7139 11.0588C10.7252 11.1155 10.753 11.1671 10.7938 11.2082C10.8345 11.2487 10.8865 11.2765 10.9431 11.2877C10.9996 11.2993 11.0583 11.2933 11.1116 11.2715C11.1648 11.2492 11.2104 11.2117 11.2424 11.1641C11.2745 11.116 11.2916 11.0598 11.2916 11.002C11.2913 10.9246 11.2606 10.8506 11.2059 10.7959C11.1513 10.7412 11.0772 10.7103 11 10.7103ZM11 3.40924C10.9155 3.40924 10.8343 3.37532 10.7745 3.31556C10.7147 3.25579 10.6811 3.17475 10.6811 3.09017V1.25022C10.6811 1.16564 10.7147 1.0846 10.7745 1.02484C10.8343 0.965078 10.9155 0.931152 11 0.931152C11.0846 0.931152 11.1657 0.965078 11.2256 1.02484C11.2854 1.0846 11.319 1.16564 11.319 1.25022V3.08664C11.3195 3.12867 11.3116 3.1707 11.2958 3.2097C11.28 3.2487 11.2565 3.28466 11.2269 3.31454C11.1972 3.34442 11.1618 3.36822 11.123 3.38443C11.084 3.40063 11.0422 3.40924 11 3.40924ZM11 20.8775C10.9155 20.8775 10.8343 20.844 10.7745 20.7843C10.7147 20.724 10.6811 20.643 10.6811 20.5584V18.7225C10.6811 18.6379 10.7147 18.5564 10.7745 18.4966C10.8343 18.4368 10.9155 18.4034 11 18.4034C11.0846 18.4034 11.1657 18.4368 11.2256 18.4966C11.2854 18.5564 11.319 18.6379 11.319 18.7225V20.5584C11.319 20.643 11.2854 20.724 11.2256 20.7843C11.1657 20.844 11.0846 20.8775 11 20.8775ZM20.6523 11.2254H18.8161C18.7315 11.2254 18.6504 11.1915 18.5906 11.1317C18.5307 11.0719 18.4971 10.9909 18.4971 10.9063C18.4971 10.8217 18.5307 10.7407 18.5906 10.681C18.6504 10.6207 18.7315 10.5873 18.8161 10.5873H20.6523C20.7369 10.5873 20.818 10.6207 20.8778 10.681C20.9376 10.7407 20.9713 10.8217 20.9713 10.9063C20.9713 10.9909 20.9376 11.0719 20.8778 11.1317C20.818 11.1915 20.7369 11.2254 20.6523 11.2254ZM3.18399 11.2254H1.34778C1.2632 11.2254 1.18206 11.1915 1.12225 11.1317C1.06244 11.0719 1.02881 10.9909 1.02881 10.9063C1.02881 10.8217 1.06244 10.7407 1.12225 10.681C1.18206 10.6207 1.2632 10.5873 1.34778 10.5873H3.18399C3.26856 10.5873 3.3497 10.6207 3.40951 10.681C3.46932 10.7407 3.50295 10.8217 3.50295 10.9063C3.50295 10.9909 3.46932 11.0719 3.40951 11.1317C3.3497 11.1915 3.26856 11.2254 3.18399 11.2254ZM6.57573 3.4609C6.52022 3.4609 6.46573 3.4457 6.41771 3.41785C6.36975 3.38999 6.32999 3.34999 6.30234 3.30137L5.95061 2.69362C5.91065 2.62069 5.90082 2.53511 5.92331 2.45458C5.9458 2.37456 5.99877 2.30619 6.07089 2.26466C6.14306 2.22262 6.22865 2.21097 6.30933 2.23173C6.39006 2.25249 6.4595 2.30365 6.50285 2.37506L6.85458 2.98281C6.89662 3.05574 6.90796 3.14285 6.88608 3.22439C6.86426 3.30593 6.81098 3.37581 6.73795 3.41836C6.68872 3.44672 6.6327 3.46191 6.57573 3.4609ZM18.6556 6.69261C18.5855 6.69261 18.5173 6.66931 18.4616 6.62676C18.406 6.58372 18.3659 6.52396 18.3478 6.45609C18.3296 6.38823 18.3343 6.31631 18.3611 6.25148C18.388 6.18666 18.4354 6.13246 18.4962 6.09752L19.104 5.74655C19.1403 5.72426 19.1807 5.71008 19.2227 5.70349C19.2648 5.69742 19.3076 5.69944 19.3488 5.71007C19.39 5.72071 19.4286 5.73894 19.4625 5.76477C19.4964 5.7906 19.5248 5.82252 19.5461 5.85949C19.5674 5.89646 19.581 5.93697 19.5864 5.979C19.5917 6.02155 19.5885 6.06409 19.577 6.10511C19.5655 6.14613 19.546 6.18412 19.5196 6.21754C19.4931 6.25097 19.4602 6.27832 19.423 6.29858L18.8151 6.64955C18.7667 6.67791 18.7117 6.69261 18.6556 6.69261ZM2.73658 15.8929C2.66644 15.8929 2.59822 15.8696 2.54256 15.8265C2.48685 15.784 2.44684 15.7243 2.42871 15.6564C2.41053 15.5885 2.41523 15.5166 2.44208 15.4518C2.46887 15.3869 2.51637 15.3328 2.5771 15.2978L3.18495 14.9468C3.22126 14.9246 3.26163 14.9104 3.30366 14.9038C3.3457 14.8977 3.38854 14.8997 3.42977 14.9104C3.47094 14.921 3.50959 14.9392 3.54347 14.9651C3.57735 14.9909 3.60576 15.0228 3.62703 15.0598C3.64825 15.0967 3.66198 15.1373 3.6673 15.1793C3.67257 15.2218 3.66943 15.2644 3.65793 15.3054C3.64648 15.3464 3.62693 15.3844 3.6005 15.4178C3.57401 15.4513 3.54119 15.4786 3.50386 15.4989L2.89607 15.8499C2.84765 15.8782 2.7926 15.8929 2.73658 15.8929ZM15.776 19.3849C15.7205 19.3844 15.6661 19.3692 15.6182 19.3414C15.5702 19.3135 15.5304 19.2735 15.5026 19.2254L15.1509 18.6176C15.1299 18.5812 15.1163 18.5412 15.1107 18.4996C15.1052 18.4581 15.1079 18.4161 15.1187 18.3755C15.1295 18.335 15.1481 18.2971 15.1736 18.2636C15.1991 18.2302 15.2308 18.2023 15.2671 18.1816C15.3033 18.1603 15.3434 18.1466 15.3849 18.1411C15.4265 18.1355 15.4687 18.1385 15.5092 18.1492C15.5496 18.1598 15.5876 18.1785 15.6209 18.2044C15.6542 18.2297 15.6821 18.2616 15.7031 18.2976L16.0549 18.9053C16.0972 18.9787 16.1087 19.0659 16.0868 19.1479C16.065 19.2294 16.0115 19.2993 15.9382 19.3419C15.889 19.3707 15.833 19.3854 15.776 19.3849ZM3.33795 6.70273C3.28224 6.70273 3.22754 6.68753 3.17943 6.65968L2.57067 6.30972C2.49733 6.26769 2.4438 6.19779 2.42182 6.11574C2.39984 6.03421 2.41128 5.94711 2.45357 5.87367C2.49586 5.80023 2.56555 5.74705 2.64734 5.72476C2.72914 5.70298 2.81625 5.71413 2.88963 5.75667L3.49743 6.10765C3.55821 6.14259 3.60566 6.19678 3.6325 6.26161C3.65935 6.32644 3.66406 6.39836 3.64587 6.46622C3.62769 6.53409 3.58768 6.59384 3.53202 6.63638C3.47636 6.67943 3.40814 6.70223 3.33795 6.70273ZM15.4143 3.45583C15.3586 3.45583 15.3038 3.44065 15.2557 3.41279C15.2194 3.39203 15.1875 3.36417 15.1619 3.33074C15.1364 3.29782 15.1176 3.25984 15.1067 3.21932C15.0958 3.1788 15.0929 3.13677 15.0983 3.09524C15.1037 3.05371 15.1172 3.0137 15.1381 2.97723L15.489 2.36948C15.5088 2.33099 15.5362 2.29706 15.5694 2.26971C15.6027 2.24237 15.6412 2.22211 15.6825 2.20996C15.7238 2.1978 15.7672 2.19426 15.81 2.19932C15.8527 2.20439 15.894 2.21806 15.9314 2.23984C15.9687 2.26111 16.0012 2.28998 16.0271 2.32442C16.053 2.35885 16.0716 2.39836 16.0819 2.43989C16.0922 2.48193 16.0939 2.52548 16.0869 2.56802C16.0799 2.61057 16.0643 2.65108 16.0412 2.68754L15.6913 3.2963C15.6631 3.34492 15.6228 3.38494 15.5741 3.41279C15.5255 3.44115 15.4704 3.45583 15.4143 3.45583ZM6.23493 19.3849C6.17907 19.3849 6.12412 19.3702 6.0755 19.3429C6.00227 19.3003 5.94883 19.231 5.92701 19.1494C5.90513 19.0674 5.91657 18.9803 5.95886 18.9073L6.30877 18.2986C6.35106 18.2251 6.42075 18.1714 6.50254 18.1497C6.58434 18.1279 6.67145 18.139 6.74483 18.1816C6.81817 18.2236 6.8717 18.2935 6.89368 18.375C6.91561 18.4571 6.90422 18.5442 6.86193 18.6176L6.51105 19.2254C6.48325 19.274 6.44304 19.314 6.39452 19.3424C6.346 19.3702 6.29095 19.3849 6.23493 19.3849ZM19.2698 15.8818C19.214 15.8818 19.159 15.8676 19.1104 15.8397L18.5025 15.4893C18.4643 15.469 18.4305 15.4416 18.4031 15.4087C18.3757 15.3753 18.3554 15.3368 18.3432 15.2958C18.3311 15.2543 18.3275 15.2107 18.3326 15.1682C18.3377 15.1251 18.3514 15.0841 18.3729 15.0466C18.3944 15.0096 18.4232 14.9767 18.4577 14.9509C18.4921 14.9251 18.5315 14.9063 18.5733 14.8962C18.6151 14.8861 18.6586 14.884 18.7011 14.8911C18.7436 14.8982 18.7842 14.9139 18.8206 14.9367L19.4293 15.2867C19.4901 15.3221 19.5375 15.3763 19.5644 15.4411C19.5912 15.506 19.5959 15.5779 19.5777 15.6452C19.5596 15.7131 19.5196 15.7734 19.4639 15.8159C19.4082 15.8585 19.34 15.8818 19.2698 15.8818Z" fill="black"/>
<path id="Vector_4" d="M11.0001 10.7103C10.9155 10.7103 10.8343 10.6769 10.7745 10.6171C10.7147 10.5569 10.6811 10.4758 10.6811 10.3913V4.92354C10.6811 4.83897 10.7147 4.75792 10.7745 4.69816C10.8343 4.6384 10.9155 4.60498 11.0001 4.60498C11.0846 4.60498 11.1658 4.6384 11.2256 4.69816C11.2854 4.75792 11.319 4.83897 11.319 4.92354V10.3913C11.319 10.4758 11.2854 10.5569 11.2256 10.6171C11.1658 10.6769 11.0846 10.7103 11.0001 10.7103ZM11.0001 16.3695C10.9155 16.3695 10.8343 16.3355 10.7745 16.2758C10.7147 16.216 10.6811 16.135 10.6811 16.0504V11.6123C10.6811 11.5277 10.7147 11.4467 10.7745 11.3869C10.8343 11.3272 10.9155 11.2937 11.0001 11.2937C11.0846 11.2937 11.1658 11.3272 11.2256 11.3869C11.2854 11.4467 11.319 11.5277 11.319 11.6123V16.0504C11.319 16.135 11.2854 16.216 11.2256 16.2758C11.1658 16.3355 11.0846 16.3695 11.0001 16.3695Z" fill="black"/>
<path id="Vector_5" d="M10.9892 17.0972C10.9286 17.0977 10.8691 17.0805 10.8178 17.0481C10.7665 17.0161 10.7255 16.9701 10.6994 16.9154L10.0515 15.512C10.0286 15.4628 10.0185 15.4092 10.0219 15.3555C10.0253 15.3018 10.0423 15.2496 10.0712 15.2046C10.1001 15.159 10.14 15.1215 10.1872 15.0957C10.2344 15.0698 10.2874 15.0562 10.3413 15.0562H11.6107C11.6638 15.0562 11.7161 15.0693 11.7628 15.0946C11.8095 15.12 11.8492 15.1564 11.8782 15.201C11.9071 15.2456 11.9245 15.2967 11.9287 15.3499C11.9329 15.4026 11.9238 15.4558 11.9023 15.5044L11.2808 16.9078C11.256 16.964 11.2156 17.0116 11.1644 17.0455C11.1131 17.0789 11.0532 17.0972 10.9919 17.0972H10.9892ZM10.8397 15.6938L10.9828 16.0047L11.1204 15.6938H10.8397Z" fill="black"/>
</g>
</svg>
