<svg width="16" height="17" viewBox="0 0 16 17" fill="none" xmlns="http://www.w3.org/2000/svg">
<g id="whatshot">
<path id="Vector" d="M8.99996 1.39001C8.99996 1.39001 9.49329 3.15668 9.49329 4.59001C9.49329 5.96335 8.59329 7.07668 7.21996 7.07668C5.83996 7.07668 4.79996 5.96335 4.79996 4.59001L4.81996 4.35001C3.47329 5.95001 2.66663 8.02335 2.66663 10.2767C2.66663 13.2233 5.05329 15.61 7.99996 15.61C10.9466 15.61 13.3333 13.2233 13.3333 10.2767C13.3333 6.68335 11.6066 3.47668 8.99996 1.39001ZM7.80663 13.61C6.61996 13.61 5.65996 12.6767 5.65996 11.5167C5.65996 10.4367 6.35996 9.67668 7.53329 9.43668C8.71329 9.19668 9.93329 8.63001 10.6133 7.71668C10.8733 8.57668 11.0066 9.48335 11.0066 10.41C11.0066 12.1767 9.57329 13.61 7.80663 13.61Z" fill="#A88CFF"/>
</g>
</svg>
